<?xml version="1.0" encoding="UTF-8" standalone="no"?><!DOCTYPE svg PUBLIC "-//W3C//DTD SVG 1.1//EN" "http://www.w3.org/Graphics/SVG/1.1/DTD/svg11.dtd"><!-- Generated by graphviz version 2.40.1 (20161225.0304)
 --><!-- Title: classes_janis_core Pages: 1 --><svg xmlns="http://www.w3.org/2000/svg" xmlns:xlink="http://www.w3.org/1999/xlink" width="2356pt" height="1510pt" viewBox="0.00 0.00 2356.07 1509.60">
<g id="graph0" class="graph" transform="scale(1 1) rotate(0) translate(4 1505.6)">
<title>classes_janis_core</title>
<polygon fill="#ffffff" stroke="transparent" points="-4,4 -4,-1505.6 2352.0674,-1505.6 2352.0674,4 -4,4"/>
<!-- 74 -->
<g id="node1" class="node">
<title>74</title>
<polygon fill="none" stroke="#000000" points="1330.4215,-1174.7 1330.4215,-1501.1 1459.9573,-1501.1 1459.9573,-1174.7 1330.4215,-1174.7"/>
<text text-anchor="middle" x="1395.1894" y="-1484.5" font-family="Times,serif" font-size="14.00" fill="#000000">NativeTypes</text>
<polyline fill="none" stroke="#000000" points="1330.4215,-1476.3 1459.9573,-1476.3 "/>
<text text-anchor="start" x="1338.4215" y="-1459.7" font-family="Times,serif" font-size="14.00" fill="#000000">all : list</text>
<text text-anchor="start" x="1338.4215" y="-1442.9" font-family="Times,serif" font-size="14.00" fill="#000000">kArray : str</text>
<text text-anchor="start" x="1338.4215" y="-1426.1" font-family="Times,serif" font-size="14.00" fill="#000000">kBool : str</text>
<text text-anchor="start" x="1338.4215" y="-1409.3" font-family="Times,serif" font-size="14.00" fill="#000000">kDirectory : str</text>
<text text-anchor="start" x="1338.4215" y="-1392.5" font-family="Times,serif" font-size="14.00" fill="#000000">kDouble : str</text>
<text text-anchor="start" x="1338.4215" y="-1375.7" font-family="Times,serif" font-size="14.00" fill="#000000">kFile : str</text>
<text text-anchor="start" x="1338.4215" y="-1358.9" font-family="Times,serif" font-size="14.00" fill="#000000">kFloat : str</text>
<text text-anchor="start" x="1338.4215" y="-1342.1" font-family="Times,serif" font-size="14.00" fill="#000000">kInt : str</text>
<text text-anchor="start" x="1338.4215" y="-1325.3" font-family="Times,serif" font-size="14.00" fill="#000000">kLong : str</text>
<text text-anchor="start" x="1338.4215" y="-1308.5" font-family="Times,serif" font-size="14.00" fill="#000000">kStderr : str</text>
<text text-anchor="start" x="1338.4215" y="-1291.7" font-family="Times,serif" font-size="14.00" fill="#000000">kStdout : str</text>
<text text-anchor="start" x="1338.4215" y="-1274.9" font-family="Times,serif" font-size="14.00" fill="#000000">kStr : str</text>
<polyline fill="none" stroke="#000000" points="1330.4215,-1266.7 1459.9573,-1266.7 "/>
<text text-anchor="start" x="1338.4215" y="-1250.1" font-family="Times,serif" font-size="14.00" fill="#000000">is_primitive(t)</text>
<text text-anchor="start" x="1338.4215" y="-1233.3" font-family="Times,serif" font-size="14.00" fill="#000000">is_valid(t)</text>
<text text-anchor="start" x="1338.4215" y="-1216.5" font-family="Times,serif" font-size="14.00" fill="#000000">map_to_cwl(t)</text>
<text text-anchor="start" x="1338.4215" y="-1199.7" font-family="Times,serif" font-size="14.00" fill="#000000">map_to_primitive(t)</text>
<text text-anchor="start" x="1338.4215" y="-1182.9" font-family="Times,serif" font-size="14.00" fill="#000000">map_to_wdl(t)</text>
</g>
<!-- 4 -->
<g id="node2" class="node">
<title>4</title>
<polygon fill="none" stroke="#000000" points="0,-330.3 0,-690.3 294.3788,-690.3 294.3788,-330.3 0,-330.3"/>
<text text-anchor="middle" x="147.1894" y="-673.7" font-family="Times,serif" font-size="14.00" fill="#000000">Array</text>
<polyline fill="none" stroke="#000000" points="0,-665.5 294.3788,-665.5 "/>
<text text-anchor="start" x="8" y="-648.9" font-family="Times,serif" font-size="14.00" fill="#000000">optional : bool, NoneType</text>
<polyline fill="none" stroke="#000000" points="0,-640.7 294.3788,-640.7 "/>
<text text-anchor="start" x="8" y="-624.1" font-family="Times,serif" font-size="14.00" fill="#000000">can_receive_from(other, source_has_default)</text>
<text text-anchor="start" x="8" y="-607.3" font-family="Times,serif" font-size="14.00" fill="#000000">cwl_input(value)</text>
<text text-anchor="start" x="8" y="-590.5" font-family="Times,serif" font-size="14.00" fill="#000000">cwl_type(has_default)</text>
<text text-anchor="start" x="8" y="-573.7" font-family="Times,serif" font-size="14.00" fill="#000000">doc()</text>
<text text-anchor="start" x="8" y="-556.9" font-family="Times,serif" font-size="14.00" fill="#000000">fundamental_type()</text>
<text text-anchor="start" x="8" y="-540.1" font-family="Times,serif" font-size="14.00" fill="#000000">id()</text>
<text text-anchor="start" x="8" y="-523.3" font-family="Times,serif" font-size="14.00" fill="#000000">input_field_from_input(meta)</text>
<text text-anchor="start" x="8" y="-506.5" font-family="Times,serif" font-size="14.00" fill="#000000">invalid_value_hint(meta)</text>
<text text-anchor="start" x="8" y="-489.7" font-family="Times,serif" font-size="14.00" fill="#000000">is_array()</text>
<text text-anchor="start" x="8" y="-472.9" font-family="Times,serif" font-size="14.00" fill="#000000">map_cwl_type(parameter)</text>
<text text-anchor="start" x="8" y="-456.1" font-family="Times,serif" font-size="14.00" fill="#000000">name()</text>
<text text-anchor="start" x="8" y="-439.3" font-family="Times,serif" font-size="14.00" fill="#000000">parse_value(valuetoparse)</text>
<text text-anchor="start" x="8" y="-422.5" font-family="Times,serif" font-size="14.00" fill="#000000">primitive()</text>
<text text-anchor="start" x="8" y="-405.7" font-family="Times,serif" font-size="14.00" fill="#000000">received_type()</text>
<text text-anchor="start" x="8" y="-388.9" font-family="Times,serif" font-size="14.00" fill="#000000">schema(cls)</text>
<text text-anchor="start" x="8" y="-372.1" font-family="Times,serif" font-size="14.00" fill="#000000">subtype()</text>
<text text-anchor="start" x="8" y="-355.3" font-family="Times,serif" font-size="14.00" fill="#000000">validate_value(meta, allow_null_if_not_optional)</text>
<text text-anchor="start" x="8" y="-338.5" font-family="Times,serif" font-size="14.00" fill="#000000">wdl(has_default)</text>
</g>
<!-- 22 -->
<g id="node4" class="node">
<title>22</title>
<polygon fill="none" stroke="#000000" points="1248,-727.3 1248,-1137.7 1542.3788,-1137.7 1542.3788,-727.3 1248,-727.3"/>
<text text-anchor="middle" x="1395.1894" y="-1121.1" font-family="Times,serif" font-size="14.00" fill="#000000">DataType</text>
<polyline fill="none" stroke="#000000" points="1248,-1112.9 1542.3788,-1112.9 "/>
<text text-anchor="start" x="1256" y="-1096.3" font-family="Times,serif" font-size="14.00" fill="#000000">is_prim</text>
<text text-anchor="start" x="1256" y="-1079.5" font-family="Times,serif" font-size="14.00" fill="#000000">optional : bool</text>
<polyline fill="none" stroke="#000000" points="1248,-1071.3 1542.3788,-1071.3 "/>
<text text-anchor="start" x="1256" y="-1054.7" font-family="Times,serif" font-size="14.00" fill="#000000">can_receive_from(other, source_has_default)</text>
<text text-anchor="start" x="1256" y="-1037.9" font-family="Times,serif" font-size="14.00" fill="#000000">coerce_value_if_possible(value)</text>
<text text-anchor="start" x="1256" y="-1021.1" font-family="Times,serif" font-size="14.00" fill="#000000">copy()</text>
<text text-anchor="start" x="1256" y="-1004.3" font-family="Times,serif" font-size="14.00" fill="#000000">cwl_input(value)</text>
<text text-anchor="start" x="1256" y="-987.5" font-family="Times,serif" font-size="14.00" fill="#000000">cwl_type(has_default)</text>
<text text-anchor="start" x="1256" y="-970.7" font-family="Times,serif" font-size="14.00" fill="#000000">doc()</text>
<text text-anchor="start" x="1256" y="-953.9" font-family="Times,serif" font-size="14.00" fill="#000000">id()</text>
<text text-anchor="start" x="1256" y="-937.1" font-family="Times,serif" font-size="14.00" fill="#000000">identify()</text>
<text text-anchor="start" x="1256" y="-920.3" font-family="Times,serif" font-size="14.00" fill="#000000">input_field_from_input(meta)</text>
<text text-anchor="start" x="1256" y="-903.5" font-family="Times,serif" font-size="14.00" fill="#000000">invalid_value_hint(meta)</text>
<text text-anchor="start" x="1256" y="-886.7" font-family="Times,serif" font-size="14.00" fill="#000000">is_array()</text>
<text text-anchor="start" x="1256" y="-869.9" font-family="Times,serif" font-size="14.00" fill="#000000">is_base_type(base_type)</text>
<text text-anchor="start" x="1256" y="-853.1" font-family="Times,serif" font-size="14.00" fill="#000000">map_cwl_type(parameter)</text>
<text text-anchor="start" x="1256" y="-836.3" font-family="Times,serif" font-size="14.00" fill="#000000">name()</text>
<text text-anchor="start" x="1256" y="-819.5" font-family="Times,serif" font-size="14.00" fill="#000000">parse_value(valuetoparse)</text>
<text text-anchor="start" x="1256" y="-802.7" font-family="Times,serif" font-size="14.00" fill="#000000">primitive()</text>
<text text-anchor="start" x="1256" y="-785.9" font-family="Times,serif" font-size="14.00" fill="#000000">received_type()</text>
<text text-anchor="start" x="1256" y="-769.1" font-family="Times,serif" font-size="14.00" fill="#000000">secondary_files()</text>
<text text-anchor="start" x="1256" y="-752.3" font-family="Times,serif" font-size="14.00" fill="#000000">validate_value(meta, allow_null_if_not_optional)</text>
<text text-anchor="start" x="1256" y="-735.5" font-family="Times,serif" font-size="14.00" fill="#000000">wdl(has_default)</text>
</g>
<!-- 4&#45;&gt;22 -->
<g id="edge5" class="edge">
<title>4-&gt;22</title>
<path fill="none" stroke="#000000" d="M294.4688,-685.3303C297.3477,-687.2238 300.255,-689.0492 303.1894,-690.8 459.8965,-784.2991 975.1519,-870.7944 1237.9795,-910.1681"/>
<polygon fill="none" stroke="#000000" points="1237.5844,-913.6479 1247.9917,-911.6635 1238.6185,-906.7247 1237.5844,-913.6479"/>
</g>
<!-- 12 -->
<g id="node3" class="node">
<title>12</title>
<polygon fill="none" stroke="#000000" points="312,-422.7 312,-597.9 606.3788,-597.9 606.3788,-422.7 312,-422.7"/>
<text text-anchor="middle" x="459.1894" y="-581.3" font-family="Times,serif" font-size="14.00" fill="#000000">Boolean</text>
<polyline fill="none" stroke="#000000" points="312,-573.1 606.3788,-573.1 "/>
<text text-anchor="start" x="320" y="-556.5" font-family="Times,serif" font-size="14.00" fill="#000000">optional : bool, NoneType</text>
<polyline fill="none" stroke="#000000" points="312,-548.3 606.3788,-548.3 "/>
<text text-anchor="start" x="320" y="-531.7" font-family="Times,serif" font-size="14.00" fill="#000000">coerce_value_if_possible(value)</text>
<text text-anchor="start" x="320" y="-514.9" font-family="Times,serif" font-size="14.00" fill="#000000">doc()</text>
<text text-anchor="start" x="320" y="-498.1" font-family="Times,serif" font-size="14.00" fill="#000000">input_field_from_input(meta)</text>
<text text-anchor="start" x="320" y="-481.3" font-family="Times,serif" font-size="14.00" fill="#000000">invalid_value_hint(meta)</text>
<text text-anchor="start" x="320" y="-464.5" font-family="Times,serif" font-size="14.00" fill="#000000">name()</text>
<text text-anchor="start" x="320" y="-447.7" font-family="Times,serif" font-size="14.00" fill="#000000">primitive()</text>
<text text-anchor="start" x="320" y="-430.9" font-family="Times,serif" font-size="14.00" fill="#000000">validate_value(meta, allow_null_if_not_optional)</text>
</g>
<!-- 12&#45;&gt;22 -->
<g id="edge6" class="edge">
<title>12-&gt;22</title>
<path fill="none" stroke="#000000" d="M518.521,-597.905C544.7641,-631.026 578.1017,-666.5393 615.1894,-690.8 808.529,-817.2721 1071.7955,-880.6697 1237.6151,-910.0462"/>
<polygon fill="none" stroke="#000000" points="1237.4471,-913.5699 1247.9008,-911.8469 1238.6542,-906.6748 1237.4471,-913.5699"/>
</g>
<!-- 22&#45;&gt;74 -->
<g id="edge1" class="edge">
<title>22-&gt;74</title>
<path fill="none" stroke="#000000" d="M1395.1894,-1137.8722C1395.1894,-1146.6857 1395.1894,-1155.4923 1395.1894,-1164.2256"/>
<polygon fill="none" stroke="#000000" points="1391.6895,-1164.44 1395.1894,-1174.44 1398.6895,-1164.44 1391.6895,-1164.44"/>
</g>
<!-- 23 -->
<g id="node5" class="node">
<title>23</title>
<polygon fill="none" stroke="#000000" points="624,-406.3 624,-614.3 918.3788,-614.3 918.3788,-406.3 624,-406.3"/>
<text text-anchor="middle" x="771.1894" y="-597.7" font-family="Times,serif" font-size="14.00" fill="#000000">Directory</text>
<polyline fill="none" stroke="#000000" points="624,-589.5 918.3788,-589.5 "/>
<polyline fill="none" stroke="#000000" points="624,-565.5 918.3788,-565.5 "/>
<text text-anchor="start" x="632" y="-548.9" font-family="Times,serif" font-size="14.00" fill="#000000">cwl_input(value)</text>
<text text-anchor="start" x="632" y="-532.1" font-family="Times,serif" font-size="14.00" fill="#000000">doc()</text>
<text text-anchor="start" x="632" y="-515.3" font-family="Times,serif" font-size="14.00" fill="#000000">get_value_from_meta(meta)</text>
<text text-anchor="start" x="632" y="-498.5" font-family="Times,serif" font-size="14.00" fill="#000000">input_field_from_input(meta)</text>
<text text-anchor="start" x="632" y="-481.7" font-family="Times,serif" font-size="14.00" fill="#000000">invalid_value_hint(meta)</text>
<text text-anchor="start" x="632" y="-464.9" font-family="Times,serif" font-size="14.00" fill="#000000">name()</text>
<text text-anchor="start" x="632" y="-448.1" font-family="Times,serif" font-size="14.00" fill="#000000">primitive()</text>
<text text-anchor="start" x="632" y="-431.3" font-family="Times,serif" font-size="14.00" fill="#000000">schema(cls)</text>
<text text-anchor="start" x="632" y="-414.5" font-family="Times,serif" font-size="14.00" fill="#000000">validate_value(meta, allow_null_if_not_optional)</text>
</g>
<!-- 23&#45;&gt;22 -->
<g id="edge2" class="edge">
<title>23-&gt;22</title>
<path fill="none" stroke="#000000" d="M849.5959,-614.6791C872.7385,-641.4696 899.3749,-668.8813 927.1894,-690.8 1021.9054,-765.4392 1143.2247,-827.317 1238.6066,-869.7753"/>
<polygon fill="none" stroke="#000000" points="1237.1934,-872.9772 1247.7544,-873.8233 1240.0261,-866.5759 1237.1934,-872.9772"/>
</g>
<!-- 27 -->
<g id="node6" class="node">
<title>27</title>
<polygon fill="none" stroke="#000000" points="1248,-51.3 1248,-242.5 1542.3788,-242.5 1542.3788,-51.3 1248,-51.3"/>
<text text-anchor="middle" x="1395.1894" y="-225.9" font-family="Times,serif" font-size="14.00" fill="#000000">Double</text>
<polyline fill="none" stroke="#000000" points="1248,-217.7 1542.3788,-217.7 "/>
<polyline fill="none" stroke="#000000" points="1248,-193.7 1542.3788,-193.7 "/>
<text text-anchor="start" x="1256" y="-177.1" font-family="Times,serif" font-size="14.00" fill="#000000">can_receive_from(other)</text>
<text text-anchor="start" x="1256" y="-160.3" font-family="Times,serif" font-size="14.00" fill="#000000">doc()</text>
<text text-anchor="start" x="1256" y="-143.5" font-family="Times,serif" font-size="14.00" fill="#000000">input_field_from_input(meta)</text>
<text text-anchor="start" x="1256" y="-126.7" font-family="Times,serif" font-size="14.00" fill="#000000">invalid_value_hint(meta)</text>
<text text-anchor="start" x="1256" y="-109.9" font-family="Times,serif" font-size="14.00" fill="#000000">name()</text>
<text text-anchor="start" x="1256" y="-93.1" font-family="Times,serif" font-size="14.00" fill="#000000">primitive()</text>
<text text-anchor="start" x="1256" y="-76.3" font-family="Times,serif" font-size="14.00" fill="#000000">schema(cls)</text>
<text text-anchor="start" x="1256" y="-59.5" font-family="Times,serif" font-size="14.00" fill="#000000">validate_value(meta, allow_null_if_not_optional)</text>
</g>
<!-- 40 -->
<g id="node9" class="node">
<title>40</title>
<polygon fill="none" stroke="#000000" points="1248,-422.7 1248,-597.9 1542.3788,-597.9 1542.3788,-422.7 1248,-422.7"/>
<text text-anchor="middle" x="1395.1894" y="-581.3" font-family="Times,serif" font-size="14.00" fill="#000000">Float</text>
<polyline fill="none" stroke="#000000" points="1248,-573.1 1542.3788,-573.1 "/>
<text text-anchor="start" x="1256" y="-556.5" font-family="Times,serif" font-size="14.00" fill="#000000">optional : bool, NoneType</text>
<polyline fill="none" stroke="#000000" points="1248,-548.3 1542.3788,-548.3 "/>
<text text-anchor="start" x="1256" y="-531.7" font-family="Times,serif" font-size="14.00" fill="#000000">coerce_value_if_possible(value)</text>
<text text-anchor="start" x="1256" y="-514.9" font-family="Times,serif" font-size="14.00" fill="#000000">doc()</text>
<text text-anchor="start" x="1256" y="-498.1" font-family="Times,serif" font-size="14.00" fill="#000000">input_field_from_input(meta)</text>
<text text-anchor="start" x="1256" y="-481.3" font-family="Times,serif" font-size="14.00" fill="#000000">invalid_value_hint(meta)</text>
<text text-anchor="start" x="1256" y="-464.5" font-family="Times,serif" font-size="14.00" fill="#000000">name()</text>
<text text-anchor="start" x="1256" y="-447.7" font-family="Times,serif" font-size="14.00" fill="#000000">primitive()</text>
<text text-anchor="start" x="1256" y="-430.9" font-family="Times,serif" font-size="14.00" fill="#000000">validate_value(meta, allow_null_if_not_optional)</text>
</g>
<!-- 27&#45;&gt;40 -->
<g id="edge13" class="edge">
<title>27-&gt;40</title>
<path fill="none" stroke="#000000" d="M1395.1894,-242.8544C1395.1894,-295.2054 1395.1894,-359.8781 1395.1894,-412.5126"/>
<polygon fill="none" stroke="#000000" points="1391.6895,-412.5328 1395.1894,-422.5328 1398.6895,-412.5329 1391.6895,-412.5328"/>
</g>
<!-- 34 -->
<g id="node7" class="node">
<title>34</title>
<polygon fill="none" stroke="#000000" points="936,-380.7 936,-639.9 1230.3788,-639.9 1230.3788,-380.7 936,-380.7"/>
<text text-anchor="middle" x="1083.1894" y="-623.3" font-family="Times,serif" font-size="14.00" fill="#000000">File</text>
<polyline fill="none" stroke="#000000" points="936,-615.1 1230.3788,-615.1 "/>
<text text-anchor="start" x="944" y="-598.5" font-family="Times,serif" font-size="14.00" fill="#000000">alternate_extensions : NoneType</text>
<text text-anchor="start" x="944" y="-581.7" font-family="Times,serif" font-size="14.00" fill="#000000">extension : NoneType</text>
<text text-anchor="start" x="944" y="-564.9" font-family="Times,serif" font-size="14.00" fill="#000000">optional : bool, NoneType</text>
<polyline fill="none" stroke="#000000" points="936,-556.7 1230.3788,-556.7 "/>
<text text-anchor="start" x="944" y="-540.1" font-family="Times,serif" font-size="14.00" fill="#000000">can_receive_from(other, source_has_default)</text>
<text text-anchor="start" x="944" y="-523.3" font-family="Times,serif" font-size="14.00" fill="#000000">cwl_input(value)</text>
<text text-anchor="start" x="944" y="-506.5" font-family="Times,serif" font-size="14.00" fill="#000000">doc()</text>
<text text-anchor="start" x="944" y="-489.7" font-family="Times,serif" font-size="14.00" fill="#000000">get_extensions()</text>
<text text-anchor="start" x="944" y="-472.9" font-family="Times,serif" font-size="14.00" fill="#000000">get_value_from_meta(meta)</text>
<text text-anchor="start" x="944" y="-456.1" font-family="Times,serif" font-size="14.00" fill="#000000">invalid_value_hint(meta)</text>
<text text-anchor="start" x="944" y="-439.3" font-family="Times,serif" font-size="14.00" fill="#000000">name()</text>
<text text-anchor="start" x="944" y="-422.5" font-family="Times,serif" font-size="14.00" fill="#000000">primitive()</text>
<text text-anchor="start" x="944" y="-405.7" font-family="Times,serif" font-size="14.00" fill="#000000">schema(cls)</text>
<text text-anchor="start" x="944" y="-388.9" font-family="Times,serif" font-size="14.00" fill="#000000">validate_value(meta, allow_null_if_not_optional)</text>
</g>
<!-- 34&#45;&gt;22 -->
<g id="edge3" class="edge">
<title>34-&gt;22</title>
<path fill="none" stroke="#000000" d="M1179.1327,-640.131C1199.0221,-667.0454 1220.4486,-696.0398 1241.8095,-724.9456"/>
<polygon fill="none" stroke="#000000" points="1239.0733,-727.1321 1247.8313,-733.0943 1244.703,-722.9719 1239.0733,-727.1321"/>
</g>
<!-- 36 -->
<g id="node8" class="node">
<title>36</title>
<polygon fill="none" stroke="#000000" points="1872,-.5 1872,-293.3 2166.3788,-293.3 2166.3788,-.5 1872,-.5"/>
<text text-anchor="middle" x="2019.1894" y="-276.7" font-family="Times,serif" font-size="14.00" fill="#000000">Filename</text>
<polyline fill="none" stroke="#000000" points="1872,-268.5 2166.3788,-268.5 "/>
<text text-anchor="start" x="1880" y="-251.9" font-family="Times,serif" font-size="14.00" fill="#000000">extension : NoneType</text>
<text text-anchor="start" x="1880" y="-235.1" font-family="Times,serif" font-size="14.00" fill="#000000">prefix : str</text>
<text text-anchor="start" x="1880" y="-218.3" font-family="Times,serif" font-size="14.00" fill="#000000">suffix : NoneType</text>
<polyline fill="none" stroke="#000000" points="1872,-210.1 2166.3788,-210.1 "/>
<text text-anchor="start" x="1880" y="-193.5" font-family="Times,serif" font-size="14.00" fill="#000000">can_receive_from(other, source_has_default)</text>
<text text-anchor="start" x="1880" y="-176.7" font-family="Times,serif" font-size="14.00" fill="#000000">cwl_type(has_default)</text>
<text text-anchor="start" x="1880" y="-159.9" font-family="Times,serif" font-size="14.00" fill="#000000">doc()</text>
<text text-anchor="start" x="1880" y="-143.1" font-family="Times,serif" font-size="14.00" fill="#000000">generated_filename(replacements)</text>
<text text-anchor="start" x="1880" y="-126.3" font-family="Times,serif" font-size="14.00" fill="#000000">generated_filenamecwl()</text>
<text text-anchor="start" x="1880" y="-109.5" font-family="Times,serif" font-size="14.00" fill="#000000">invalid_value_hint(meta)</text>
<text text-anchor="start" x="1880" y="-92.7" font-family="Times,serif" font-size="14.00" fill="#000000">map_cwl_type(parameter)</text>
<text text-anchor="start" x="1880" y="-75.9" font-family="Times,serif" font-size="14.00" fill="#000000">name()</text>
<text text-anchor="start" x="1880" y="-59.1" font-family="Times,serif" font-size="14.00" fill="#000000">primitive()</text>
<text text-anchor="start" x="1880" y="-42.3" font-family="Times,serif" font-size="14.00" fill="#000000">schema(cls)</text>
<text text-anchor="start" x="1880" y="-25.5" font-family="Times,serif" font-size="14.00" fill="#000000">validate_value(meta, allow_null_if_not_optional)</text>
<text text-anchor="start" x="1880" y="-8.7" font-family="Times,serif" font-size="14.00" fill="#000000">wdl(has_default)</text>
</g>
<!-- 102 -->
<g id="node13" class="node">
<title>102</title>
<polygon fill="none" stroke="#000000" points="1872,-405.9 1872,-614.7 2166.3788,-614.7 2166.3788,-405.9 1872,-405.9"/>
<text text-anchor="middle" x="2019.1894" y="-598.1" font-family="Times,serif" font-size="14.00" fill="#000000">String</text>
<polyline fill="none" stroke="#000000" points="1872,-589.9 2166.3788,-589.9 "/>
<text text-anchor="start" x="1880" y="-573.3" font-family="Times,serif" font-size="14.00" fill="#000000">optional : bool, NoneType</text>
<polyline fill="none" stroke="#000000" points="1872,-565.1 2166.3788,-565.1 "/>
<text text-anchor="start" x="1880" y="-548.5" font-family="Times,serif" font-size="14.00" fill="#000000">can_receive_from(other, source_has_default)</text>
<text text-anchor="start" x="1880" y="-531.7" font-family="Times,serif" font-size="14.00" fill="#000000">coerce_value_if_possible(value)</text>
<text text-anchor="start" x="1880" y="-514.9" font-family="Times,serif" font-size="14.00" fill="#000000">doc()</text>
<text text-anchor="start" x="1880" y="-498.1" font-family="Times,serif" font-size="14.00" fill="#000000">input_field_from_input(meta)</text>
<text text-anchor="start" x="1880" y="-481.3" font-family="Times,serif" font-size="14.00" fill="#000000">invalid_value_hint(meta)</text>
<text text-anchor="start" x="1880" y="-464.5" font-family="Times,serif" font-size="14.00" fill="#000000">name()</text>
<text text-anchor="start" x="1880" y="-447.7" font-family="Times,serif" font-size="14.00" fill="#000000">primitive()</text>
<text text-anchor="start" x="1880" y="-430.9" font-family="Times,serif" font-size="14.00" fill="#000000">schema(cls)</text>
<text text-anchor="start" x="1880" y="-414.1" font-family="Times,serif" font-size="14.00" fill="#000000">validate_value(meta, allow_null_if_not_optional)</text>
</g>
<!-- 36&#45;&gt;102 -->
<g id="edge14" class="edge">
<title>36-&gt;102</title>
<path fill="none" stroke="#000000" d="M2019.1894,-293.3995C2019.1894,-327.3702 2019.1894,-363.0479 2019.1894,-395.4341"/>
<polygon fill="none" stroke="#000000" points="2015.6895,-395.827 2019.1894,-405.8271 2022.6895,-395.8271 2015.6895,-395.827"/>
</g>
<!-- 40&#45;&gt;22 -->
<g id="edge7" class="edge">
<title>40-&gt;22</title>
<path fill="none" stroke="#000000" d="M1395.1894,-598.0364C1395.1894,-632.929 1395.1894,-674.7488 1395.1894,-716.8117"/>
<polygon fill="none" stroke="#000000" points="1391.6895,-716.9293 1395.1894,-726.9293 1398.6895,-716.9293 1391.6895,-716.9293"/>
</g>
<!-- 56 -->
<g id="node10" class="node">
<title>56</title>
<polygon fill="none" stroke="#000000" points="1560,-414.3 1560,-606.3 1854.3788,-606.3 1854.3788,-414.3 1560,-414.3"/>
<text text-anchor="middle" x="1707.1894" y="-589.7" font-family="Times,serif" font-size="14.00" fill="#000000">Int</text>
<polyline fill="none" stroke="#000000" points="1560,-581.5 1854.3788,-581.5 "/>
<text text-anchor="start" x="1568" y="-564.9" font-family="Times,serif" font-size="14.00" fill="#000000">optional : bool, NoneType</text>
<polyline fill="none" stroke="#000000" points="1560,-556.7 1854.3788,-556.7 "/>
<text text-anchor="start" x="1568" y="-540.1" font-family="Times,serif" font-size="14.00" fill="#000000">coerce_value_if_possible(value)</text>
<text text-anchor="start" x="1568" y="-523.3" font-family="Times,serif" font-size="14.00" fill="#000000">doc()</text>
<text text-anchor="start" x="1568" y="-506.5" font-family="Times,serif" font-size="14.00" fill="#000000">input_field_from_input(meta)</text>
<text text-anchor="start" x="1568" y="-489.7" font-family="Times,serif" font-size="14.00" fill="#000000">invalid_value_hint(meta)</text>
<text text-anchor="start" x="1568" y="-472.9" font-family="Times,serif" font-size="14.00" fill="#000000">name()</text>
<text text-anchor="start" x="1568" y="-456.1" font-family="Times,serif" font-size="14.00" fill="#000000">primitive()</text>
<text text-anchor="start" x="1568" y="-439.3" font-family="Times,serif" font-size="14.00" fill="#000000">schema(cls)</text>
<text text-anchor="start" x="1568" y="-422.5" font-family="Times,serif" font-size="14.00" fill="#000000">validate_value(meta, allow_null_if_not_optional)</text>
</g>
<!-- 56&#45;&gt;22 -->
<g id="edge4" class="edge">
<title>56-&gt;22</title>
<path fill="none" stroke="#000000" d="M1630.4308,-606.3677C1604.9438,-639.9898 1575.6279,-679.2165 1546.5281,-718.5743"/>
<polygon fill="none" stroke="#000000" points="1543.4505,-716.85 1540.3233,-726.9728 1549.0806,-721.0095 1543.4505,-716.85"/>
</g>
<!-- 56&#45;&gt;22 -->
<g id="edge8" class="edge">
<title>56-&gt;22</title>
<path fill="none" stroke="#000000" d="M1641.9625,-606.3677C1614.5859,-644.3946 1581.511,-689.5907 1548.5899,-734.0372"/>
<polygon fill="none" stroke="#000000" points="1545.5893,-732.2078 1542.446,-742.3257 1551.2128,-736.3763 1545.5893,-732.2078"/>
</g>
<!-- 97 -->
<g id="node11" class="node">
<title>97</title>
<polygon fill="none" stroke="#000000" points="624,-59.3 624,-234.5 918.3788,-234.5 918.3788,-59.3 624,-59.3"/>
<text text-anchor="middle" x="771.1894" y="-217.9" font-family="Times,serif" font-size="14.00" fill="#000000">Stderr</text>
<polyline fill="none" stroke="#000000" points="624,-209.7 918.3788,-209.7 "/>
<text text-anchor="start" x="632" y="-193.1" font-family="Times,serif" font-size="14.00" fill="#000000">stderrname : NoneType</text>
<text text-anchor="start" x="632" y="-176.3" font-family="Times,serif" font-size="14.00" fill="#000000">subtype : NoneType</text>
<polyline fill="none" stroke="#000000" points="624,-168.1 918.3788,-168.1 "/>
<text text-anchor="start" x="632" y="-151.5" font-family="Times,serif" font-size="14.00" fill="#000000">id()</text>
<text text-anchor="start" x="632" y="-134.7" font-family="Times,serif" font-size="14.00" fill="#000000">invalid_value_hint(meta)</text>
<text text-anchor="start" x="632" y="-117.9" font-family="Times,serif" font-size="14.00" fill="#000000">name()</text>
<text text-anchor="start" x="632" y="-101.1" font-family="Times,serif" font-size="14.00" fill="#000000">primitive()</text>
<text text-anchor="start" x="632" y="-84.3" font-family="Times,serif" font-size="14.00" fill="#000000">received_type()</text>
<text text-anchor="start" x="632" y="-67.5" font-family="Times,serif" font-size="14.00" fill="#000000">validate_value(meta, allow_null_if_not_optional)</text>
</g>
<!-- 97&#45;&gt;34 -->
<g id="edge11" class="edge">
<title>97-&gt;34</title>
<path fill="none" stroke="#000000" d="M846.7159,-234.869C882.2497,-276.2568 925.4546,-326.5794 965.1641,-372.8308"/>
<polygon fill="none" stroke="#000000" points="962.5919,-375.2079 971.7616,-380.5152 967.903,-370.648 962.5919,-375.2079"/>
</g>
<!-- 98 -->
<g id="node12" class="node">
<title>98</title>
<polygon fill="none" stroke="#000000" points="936,-67.7 936,-226.1 1230.3788,-226.1 1230.3788,-67.7 936,-67.7"/>
<text text-anchor="middle" x="1083.1894" y="-209.5" font-family="Times,serif" font-size="14.00" fill="#000000">Stdout</text>
<polyline fill="none" stroke="#000000" points="936,-201.3 1230.3788,-201.3 "/>
<text text-anchor="start" x="944" y="-184.7" font-family="Times,serif" font-size="14.00" fill="#000000">subtype : NoneType</text>
<polyline fill="none" stroke="#000000" points="936,-176.5 1230.3788,-176.5 "/>
<text text-anchor="start" x="944" y="-159.9" font-family="Times,serif" font-size="14.00" fill="#000000">id()</text>
<text text-anchor="start" x="944" y="-143.1" font-family="Times,serif" font-size="14.00" fill="#000000">invalid_value_hint(meta)</text>
<text text-anchor="start" x="944" y="-126.3" font-family="Times,serif" font-size="14.00" fill="#000000">name()</text>
<text text-anchor="start" x="944" y="-109.5" font-family="Times,serif" font-size="14.00" fill="#000000">primitive()</text>
<text text-anchor="start" x="944" y="-92.7" font-family="Times,serif" font-size="14.00" fill="#000000">received_type()</text>
<text text-anchor="start" x="944" y="-75.9" font-family="Times,serif" font-size="14.00" fill="#000000">validate_value(meta, allow_null_if_not_optional)</text>
</g>
<!-- 98&#45;&gt;34 -->
<g id="edge12" class="edge">
<title>98-&gt;34</title>
<path fill="none" stroke="#000000" d="M1083.1894,-226.2006C1083.1894,-268.4028 1083.1894,-321.5476 1083.1894,-370.4233"/>
<polygon fill="none" stroke="#000000" points="1079.6895,-370.4591 1083.1894,-380.4591 1086.6895,-370.4592 1079.6895,-370.4591"/>
</g>
<!-- 102&#45;&gt;22 -->
<g id="edge9" class="edge">
<title>102-&gt;22</title>
<path fill="none" stroke="#000000" d="M1940.3765,-615.1491C1917.3287,-641.79 1890.8412,-669.0095 1863.1894,-690.8 1768.4734,-765.4392 1647.1541,-827.317 1551.7722,-869.7753"/>
<polygon fill="none" stroke="#000000" points="1550.3527,-866.5759 1542.6244,-873.8233 1553.1854,-872.9772 1550.3527,-866.5759"/>
</g>
<!-- 127 -->
<g id="node14" class="node">
<title>127</title>
<polygon fill="none" stroke="#000000" points="2184.3114,-372.3 2184.3114,-648.3 2348.0674,-648.3 2348.0674,-372.3 2184.3114,-372.3"/>
<text text-anchor="middle" x="2266.1894" y="-631.7" font-family="Times,serif" font-size="14.00" fill="#000000">UnionType</text>
<polyline fill="none" stroke="#000000" points="2184.3114,-623.5 2348.0674,-623.5 "/>
<text text-anchor="start" x="2192.3114" y="-606.9" font-family="Times,serif" font-size="14.00" fill="#000000">optional : bool, NoneType</text>
<text text-anchor="start" x="2192.3114" y="-590.1" font-family="Times,serif" font-size="14.00" fill="#000000">subtypes : list</text>
<polyline fill="none" stroke="#000000" points="2184.3114,-581.9 2348.0674,-581.9 "/>
<text text-anchor="start" x="2192.3114" y="-565.3" font-family="Times,serif" font-size="14.00" fill="#000000">can_receive_from(other)</text>
<text text-anchor="start" x="2192.3114" y="-548.5" font-family="Times,serif" font-size="14.00" fill="#000000">cwl_type(has_default)</text>
<text text-anchor="start" x="2192.3114" y="-531.7" font-family="Times,serif" font-size="14.00" fill="#000000">doc()</text>
<text text-anchor="start" x="2192.3114" y="-514.9" font-family="Times,serif" font-size="14.00" fill="#000000">get_extensions()</text>
<text text-anchor="start" x="2192.3114" y="-498.1" font-family="Times,serif" font-size="14.00" fill="#000000">id()</text>
<text text-anchor="start" x="2192.3114" y="-481.3" font-family="Times,serif" font-size="14.00" fill="#000000">invalid_value_hint()</text>
<text text-anchor="start" x="2192.3114" y="-464.5" font-family="Times,serif" font-size="14.00" fill="#000000">is_array()</text>
<text text-anchor="start" x="2192.3114" y="-447.7" font-family="Times,serif" font-size="14.00" fill="#000000">is_base_type(base_type)</text>
<text text-anchor="start" x="2192.3114" y="-430.9" font-family="Times,serif" font-size="14.00" fill="#000000">name()</text>
<text text-anchor="start" x="2192.3114" y="-414.1" font-family="Times,serif" font-size="14.00" fill="#000000">primitive()</text>
<text text-anchor="start" x="2192.3114" y="-397.3" font-family="Times,serif" font-size="14.00" fill="#000000">validate_value()</text>
<text text-anchor="start" x="2192.3114" y="-380.5" font-family="Times,serif" font-size="14.00" fill="#000000">wdl(has_default)</text>
</g>
<!-- 127&#45;&gt;22 -->
<g id="edge10" class="edge">
<title>127-&gt;22</title>
<path fill="none" stroke="#000000" d="M2211.7663,-648.5814C2201.3794,-664.29 2189.2555,-678.9003 2175.1894,-690.8 1996.5106,-841.9599 1723.913,-898.6755 1552.8319,-919.8945"/>
<polygon fill="none" stroke="#000000" points="1552.2356,-916.4411 1542.7303,-921.1208 1553.0793,-923.3901 1552.2356,-916.4411"/>
</g>
</g>
</svg>